<svg viewBox="0 0 24 24" xmlns="http://www.w3.org/2000/svg">
  <path d="M20.5 6H18V3.5a.5.5 0 0 0-.5-.5h-2a.5.5 0 0 0-.5.5V6H9V3.5a.5.5 0 0 0-.5-.5h-2a.5.5 0 0 0-.5.5V6H3.5a.5.5 0 0 0-.5.5V8h18V6.5a.5.5 0 0 0-.5-.5ZM3 20.5a.5.5 0 0 0 .5.5h17a.5.5 0 0 0 .5-.5V10H3Zm11.75-7.92h.89v6h-1.29V13.9l-1 .26-.27-1.07ZM9.7 16h-.55L9 15.17l1.42-1.43H8v-1.12h4v1L10.54 15a1.64 1.64 0 0 1 1.6 1.66 1.93 1.93 0 0 1-2.14 2 2.85 2.85 0 0 1-2.31-1l.89-.85a1.82 1.82 0 0 0 1.44.71.75.75 0 0 0 .84-.72c0-.53-.43-.8-1.16-.8Z"/>
</svg>
