<svg viewBox="0 0 24 24" xmlns="http://www.w3.org/2000/svg">
  <path d="M18.55 15.5c0-2.69-2.25-4.92-5.3-5.4V6.21a2.7 2.7 0 0 1 1.48 1 .52.52 0 0 0 .54.19l1.64-.4c.51-.12.66-.51.48-.8a6 6 0 0 0-4.14-2.53V2.5a.5.5 0 0 0-.5-.5h-1.5a.5.5 0 0 0-.5.5v1.15C8 4.1 6 6 6 8.26s2 4.15 4.75 4.61v5a2.7 2.7 0 0 1-2.25-2.38v-.73a.5.5 0 0 0-.5-.5H6a.51.51 0 0 0-.5.5v.74c0 2.67 2.23 4.9 5.25 5.4v.6a.5.5 0 0 0 .5.5h1.5a.5.5 0 0 0 .5-.5v-.6c3.05-.48 5.3-2.71 5.3-5.4ZM9 8c0-.81.72-1.5 1.75-1.81v3.62C9.72 9.5 9 8.81 9 8Zm4.25 9.83v-4.69a2.7 2.7 0 0 1 2.26 2.35 2.7 2.7 0 0 1-2.26 2.34Z"/>
</svg>
