<svg viewBox="0 0 24 24" xmlns="http://www.w3.org/2000/svg">
  <path d="M5 19v-2.5a.5.5 0 0 0-.5-.5h-1a.5.5 0 0 0-.5.5v4a.5.5 0 0 0 .5.5h4a.5.5 0 0 0 .5-.5v-1a.5.5 0 0 0-.5-.5Zm14 0h-2.5a.5.5 0 0 0-.5.5v1a.5.5 0 0 0 .5.5h4a.5.5 0 0 0 .5-.5v-4a.5.5 0 0 0-.5-.5h-1a.5.5 0 0 0-.5.5ZM5 5h2.5a.5.5 0 0 0 .5-.5v-1a.5.5 0 0 0-.5-.5h-4a.5.5 0 0 0-.5.5v4a.5.5 0 0 0 .5.5h1a.5.5 0 0 0 .5-.5Zm14 0v2.5a.5.5 0 0 0 .5.5h1a.5.5 0 0 0 .5-.5v-4a.5.5 0 0 0-.5-.5h-4a.5.5 0 0 0-.5.5v1a.5.5 0 0 0 .5.5Z"/>
  <circle cx="12" cy="8" r="3"/>
  <path d="M12 12a5 5 0 0 0-5 5v.5a.5.5 0 0 0 .5.5h9a.5.5 0 0 0 .5-.5V17a5 5 0 0 0-5-5Z"/>
</svg>
