<svg viewBox="0 0 24 24" xmlns="http://www.w3.org/2000/svg">
  <path d="M20.5 4H16v-.5a.5.5 0 0 0-.5-.5h-2a.5.5 0 0 0-.5.5V4H3.5a.5.5 0 0 0-.5.5v2a.5.5 0 0 0 .5.5H13v.5a.5.5 0 0 0 .5.5h2a.5.5 0 0 0 .5-.5V7h4.5a.5.5 0 0 0 .5-.5v-2a.5.5 0 0 0-.5-.5Zm0 6.5H8V10a.5.5 0 0 0-.5-.5h-2a.5.5 0 0 0-.5.5v.5H3.5a.5.5 0 0 0-.5.5v2a.5.5 0 0 0 .5.5H5v.5a.5.5 0 0 0 .5.5h2A.5.5 0 0 0 8 14v-.5h12.5a.5.5 0 0 0 .5-.5v-2a.5.5 0 0 0-.5-.5Zm0 6.5H19v-.5a.5.5 0 0 0-.5-.5h-2a.5.5 0 0 0-.5.5v.5H3.5a.5.5 0 0 0-.5.5v2a.5.5 0 0 0 .5.5H16v.5a.5.5 0 0 0 .5.5h2a.5.5 0 0 0 .5-.5V20h1.5a.5.5 0 0 0 .5-.5v-2a.5.5 0 0 0-.5-.5Z"/>
</svg>
