<svg viewBox="0 0 24 24" xmlns="http://www.w3.org/2000/svg">
  <path d="M19.75 3H4.25A1.25 1.25 0 0 0 3 4.25v15.5A1.25 1.25 0 0 0 4.25 21h15.5A1.25 1.25 0 0 0 21 19.75V4.25A1.25 1.25 0 0 0 19.75 3ZM8 18.5a.5.5 0 0 1-.5.5h-2a.5.5 0 0 1-.5-.5v-2a.5.5 0 0 1 .5-.5h2a.5.5 0 0 1 .5.5ZM8 13a.5.5 0 0 1-.5.5h-2A.5.5 0 0 1 5 13v-2a.5.5 0 0 1 .5-.5h2a.5.5 0 0 1 .5.5Zm0-5.5a.5.5 0 0 1-.5.5h-2a.5.5 0 0 1-.5-.5v-2a.5.5 0 0 1 .5-.5h2a.5.5 0 0 1 .5.5Zm5.5 11a.5.5 0 0 1-.5.5h-2a.5.5 0 0 1-.5-.5v-2a.5.5 0 0 1 .5-.5h2a.5.5 0 0 1 .5.5Zm0-5.5a.5.5 0 0 1-.5.5h-2a.5.5 0 0 1-.5-.5v-2a.5.5 0 0 1 .5-.5h2a.5.5 0 0 1 .5.5Zm0-5.5a.5.5 0 0 1-.5.5h-2a.5.5 0 0 1-.5-.5v-2A.5.5 0 0 1 11 5h2a.5.5 0 0 1 .5.5Zm5.5 11a.5.5 0 0 1-.5.5h-2a.5.5 0 0 1-.5-.5v-2a.5.5 0 0 1 .5-.5h2a.5.5 0 0 1 .5.5Zm0-5.5a.5.5 0 0 1-.5.5h-2a.5.5 0 0 1-.5-.5v-2a.5.5 0 0 1 .5-.5h2a.5.5 0 0 1 .5.5Zm0-5.5a.5.5 0 0 1-.5.5h-2a.5.5 0 0 1-.5-.5v-2a.5.5 0 0 1 .5-.5h2a.5.5 0 0 1 .5.5Z"/>
</svg>
