<svg width="24" height="24" viewBox="0 0 24 24" fill="none" xmlns="http://www.w3.org/2000/svg">
<path d="M14.83 11.9999L19.6 7.22995C19.7164 7.11384 19.8088 6.9759 19.8718 6.82403C19.9348 6.67217 19.9672 6.50937 19.9672 6.34495C19.9672 6.18053 19.9348 6.01773 19.8718 5.86587C19.8088 5.714 19.7164 5.57606 19.6 5.45995L18.54 4.39995C18.4239 4.28354 18.286 4.19118 18.1341 4.12817C17.9822 4.06515 17.8194 4.03271 17.655 4.03271C17.4906 4.03271 17.3278 4.06515 17.1759 4.12817C17.0241 4.19118 16.8861 4.28354 16.77 4.39995L12 9.16995L7.23001 4.39995C7.1139 4.28354 6.97596 4.19118 6.82409 4.12817C6.67223 4.06515 6.50943 4.03271 6.34501 4.03271C6.18059 4.03271 6.01779 4.06515 5.86593 4.12817C5.71406 4.19118 5.57612 4.28354 5.46001 4.39995L4.40001 5.45995C4.2836 5.57606 4.19125 5.714 4.12823 5.86587C4.06521 6.01773 4.03278 6.18053 4.03278 6.34495C4.03278 6.50937 4.06521 6.67217 4.12823 6.82403C4.19125 6.9759 4.2836 7.11384 4.40001 7.22995L9.17001 11.9999L4.40001 16.7699C4.2836 16.8861 4.19125 17.024 4.12823 17.1759C4.06521 17.3277 4.03278 17.4905 4.03278 17.655C4.03278 17.8194 4.06521 17.9822 4.12823 18.134C4.19125 18.2859 4.2836 18.4238 4.40001 18.54L5.46001 19.5999C5.57612 19.7164 5.71406 19.8087 5.86593 19.8717C6.01779 19.9347 6.18059 19.9672 6.34501 19.9672C6.50943 19.9672 6.67223 19.9347 6.82409 19.8717C6.97596 19.8087 7.1139 19.7164 7.23001 19.5999L12 14.8299L16.77 19.5999C16.8861 19.7164 17.0241 19.8087 17.1759 19.8717C17.3278 19.9347 17.4906 19.9672 17.655 19.9672C17.8194 19.9672 17.9822 19.9347 18.1341 19.8717C18.286 19.8087 18.4239 19.7164 18.54 19.5999L19.6 18.54C19.7164 18.4238 19.8088 18.2859 19.8718 18.134C19.9348 17.9822 19.9672 17.8194 19.9672 17.655C19.9672 17.4905 19.9348 17.3277 19.8718 17.1759C19.8088 17.024 19.7164 16.8861 19.6 16.7699L14.83 11.9999Z" />
</svg>
