<svg width="24" height="24" viewBox="0 0 24 24" fill="none" xmlns="http://www.w3.org/2000/svg">
<path d="M19.75 3H4.25C3.55964 3 3 3.55964 3 4.25V5.75C3 6.44036 3.55964 7 4.25 7H19.75C20.4404 7 21 6.44036 21 5.75V4.25C21 3.55964 20.4404 3 19.75 3Z" />
<path d="M19.75 10H4.25C3.55964 10 3 10.5596 3 11.25V12.75C3 13.4404 3.55964 14 4.25 14H19.75C20.4404 14 21 13.4404 21 12.75V11.25C21 10.5596 20.4404 10 19.75 10Z" />
<path d="M19.75 17H4.25C3.55964 17 3 17.5596 3 18.25V19.75C3 20.4404 3.55964 21 4.25 21H19.75C20.4404 21 21 20.4404 21 19.75V18.25C21 17.5596 20.4404 17 19.75 17Z" />
</svg>
