<svg viewBox="0 0 24 24" xmlns="http://www.w3.org/2000/svg">
  <path d="M12 4.61h3.64A5.12 5.12 0 0 1 17.3 5a2.77 2.77 0 0 1 1 .68 2.63 2.63 0 0 1 .67 1 4.86 4.86 0 0 1 .31 1.67c.05 1 .06 1.24.06 3.64s0 2.69-.06 3.64A4.86 4.86 0 0 1 19 17.3a2.63 2.63 0 0 1-.67 1 2.77 2.77 0 0 1-1 .68 5.12 5.12 0 0 1-1.67.31c-1 0-1.24.05-3.64.05s-2.69 0-3.64-.05a5.06 5.06 0 0 1-1.7-.29 2.77 2.77 0 0 1-1-.68 2.77 2.77 0 0 1-.68-1 5.12 5.12 0 0 1-.31-1.67V8.37A5.12 5.12 0 0 1 5 6.68a2.77 2.77 0 0 1 .68-1 2.77 2.77 0 0 1 1-.68 5.06 5.06 0 0 1 1.67-.31h3.64M12 3H8.28a6.9 6.9 0 0 0-2.19.42 4.42 4.42 0 0 0-1.59 1 4.37 4.37 0 0 0-1 1.6A6.78 6.78 0 0 0 3 8.28v7.42a6.9 6.9 0 0 0 .42 2.19 4.64 4.64 0 0 0 2.63 2.63 6.9 6.9 0 0 0 2.19.42h7.42a6.78 6.78 0 0 0 2.18-.42 4.37 4.37 0 0 0 1.6-1 4.42 4.42 0 0 0 1-1.59 6.66 6.66 0 0 0 .41-2.19c.05-1 .06-1.27.06-3.71s0-2.75-.06-3.71a6.54 6.54 0 0 0-.41-2.18A4.6 4.6 0 0 0 17.8 3.5a6.78 6.78 0 0 0-2.1-.5h-3.71Z"/>
  <path d="M12 7.37A4.62 4.62 0 1 0 16.61 12 4.62 4.62 0 0 0 12 7.37ZM12 15a3 3 0 1 1 3-3 3 3 0 0 1-3 3Z"/>
  <circle cx="16.79" cy="7.19" r="1.08"/>
</svg>
