<svg viewBox="0 0 24 24" xmlns="http://www.w3.org/2000/svg">
  <path d="M19.72 3H4.31a1.27 1.27 0 0 0-1.26 1.3v15.41A1.27 1.27 0 0 0 4.31 21h15.41A1.26 1.26 0 0 0 21 19.71V4.3A1.26 1.26 0 0 0 19.72 3ZM8.39 18.15c0 .14 0 .19-.18.19H5.86c-.15 0-.18-.06-.18-.2V9.96c0-.16 0-.22.2-.21H8.2c.14 0 .19 0 .19.18ZM7 8.6a1.55 1.55 0 1 1 1.59-1.54A1.54 1.54 0 0 1 7 8.6Zm11.32 9.53c0 .17-.06.22-.22.21h-2.24c-.16 0-.22-.05-.22-.22V13.9a4.77 4.77 0 0 0-.11-1.06 1.09 1.09 0 0 0-1.18-.92 2.28 2.28 0 0 0-.58.05 1.35 1.35 0 0 0-1 1.2 4.79 4.79 0 0 0-.06.85v4.1c0 .22 0 .22-.22.22h-2.26c-.17 0-.22 0-.22-.21V10c0-.22 0-.22.22-.22h2.18c.15 0 .21 0 .2.2s0 .61 0 .92c0-.06.13-.18.16-.22a2.88 2.88 0 0 1 .78-.65 3.22 3.22 0 0 1 4.29.88 7.16 7.16 0 0 1 .58 3.4c.02 1.25-.08 2.53-.07 3.82Z"/>
</svg>
