<svg viewBox="0 0 24 24" xmlns="http://www.w3.org/2000/svg">
  <path d="m16.27 12.27-.33-.33a.53.53 0 0 1-.09-.66 2.25 2.25 0 0 0-.26-2.87 2.31 2.31 0 0 0-2.88-.25.52.52 0 0 1-.64-.09l-.33-.33a.5.5 0 0 1 .08-.74 3.85 3.85 0 0 1 4.83.39 3.74 3.74 0 0 1 .35 4.8.51.51 0 0 1-.73.08Z"/>
  <path d="m18.58 14.58-.71-.71a.5.5 0 0 1 0-.68A4.94 4.94 0 0 0 19 10a5 5 0 0 0-5-5 4.94 4.94 0 0 0-3.19 1.15.5.5 0 0 1-.68 0l-.71-.71a.5.5 0 0 1 0-.73 7 7 0 0 1 9.87 9.87.5.5 0 0 1-.71 0Zm.52 3.05-2.83-2.83a.51.51 0 0 0-.71 0L14 16.39a.24.24 0 0 1-.35 0l-6-6a.24.24 0 0 1 0-.35l1.55-1.6a.51.51 0 0 0 0-.71L6.37 4.9a.51.51 0 0 0-.71 0L3.19 7.38C2.37 9 4.3 12.74 7.78 16.22s7.27 5.41 8.84 4.59l2.48-2.47a.51.51 0 0 0 0-.71Z"/>
</svg>
