<svg viewBox="0 0 24 24" xmlns="http://www.w3.org/2000/svg">
  <path fill="none" d="m12.41 4.06 1.65 5.34a.44.44 0 0 0 .41.31h5.35a.45.45 0 0 1 .26.81l-4.33 3.3a.44.44 0 0 0-.16.5l1.65 5.34a.43.43 0 0 1-.66.5l-4.33-3.3a.42.42 0 0 0-.5 0l-4.33 3.3a.43.43 0 0 1-.66-.5l1.65-5.34a.46.46 0 0 0-.16-.5l-4.33-3.3a.45.45 0 0 1 .25-.81h5.36a.44.44 0 0 0 .41-.31l1.65-5.34a.42.42 0 0 1 .82 0Z"/>
  <path d="M7.16 21a1.15 1.15 0 0 1-.66-.21 1.21 1.21 0 0 1-.5-1.35l1.6-5.15-4.13-3.18a1.21 1.21 0 0 1-.41-1.34A1.17 1.17 0 0 1 4.17 9h5.12l1.59-5.12A1.17 1.17 0 0 1 12 3a1.19 1.19 0 0 1 1.12.84L14.71 9h5.12a1.18 1.18 0 0 1 1.11.81 1.21 1.21 0 0 1-.41 1.34l-4.17 3.18L18 19.44a1.21 1.21 0 0 1-.46 1.35 1.16 1.16 0 0 1-1.37 0L12 17.61l-4.13 3.15a1.17 1.17 0 0 1-.71.24ZM12 16a1.12 1.12 0 0 1 .7.24L16.25 19l-1.37-4.43a1.19 1.19 0 0 1 .41-1.31l3.65-2.78h-4.47a1.16 1.16 0 0 1-1.12-.83L12 5.26l-1.35 4.36a1.17 1.17 0 0 1-1.12.83H5.06l3.65 2.78a1.2 1.2 0 0 1 .41 1.32L7.75 19l3.55-2.7a1.12 1.12 0 0 1 .7-.3Zm-4.3-1.9Zm8.6 0Z"/>
</svg>
