<svg viewBox="0 0 24 24" xmlns="http://www.w3.org/2000/svg">
  <path d="M12 2a6 6 0 0 0-6 6v8a6 6 0 1 0 12 0V8a6 6 0 0 0-6-6Zm0 1.49c2.48 0 4.49 2.72 4.49 6.07a.5.5 0 0 1-.5.5.5.5 0 0 1-.5-.5c0-2.79-1.57-5.07-3.49-5.07S8.51 6.77 8.51 9.56a.5.5 0 0 1-.5.5.5.5 0 0 1-.5-.5c0-3.35 2.01-6.07 4.49-6.07Zm-4 8a2.56 2.56 0 0 0 2.08-2.26A2 2 0 0 1 12 7a2 2 0 0 1 1.93 2.27A2.56 2.56 0 0 0 16 11.54a.5.5 0 0 1 .5.5.5.5 0 0 1-.5.5 3.49 3.49 0 0 1-3.07-3.26C12.92 8.5 12.59 8 12 8s-.92.48-.92 1.26A3.49 3.49 0 0 1 8 12.54a.5.5 0 0 1-.5-.5.51.51 0 0 1 .5-.5Zm4.51-.25c0 2.39-1.8 4-4.48 4a.5.5 0 0 1 0-1c2.11 0 3.48-1.17 3.48-3a.5.5 0 0 1 .5-.5.5.5 0 0 1 .49.55Zm-5 6a.5.5 0 0 1 .5-.5A6.15 6.15 0 0 0 12 15.26a6.13 6.13 0 0 1 4-1.52.5.5 0 0 1 .5.5.5.5 0 0 1-.5.5 5.22 5.22 0 0 0-3.41 1.33A7.08 7.08 0 0 1 8 17.75a.5.5 0 0 1-.55-.5Zm9.07-.48A4.31 4.31 0 0 1 14.21 20a4.63 4.63 0 0 1-2.11.49 5.14 5.14 0 0 1-2.4-.58.5.5 0 1 1 .48-.87 4.12 4.12 0 0 0 3.58.06 3.3 3.3 0 0 0 1.78-2.54.5.5 0 0 1 .6-.38.49.49 0 0 1 .38.59Z"/>
</svg>
