<svg id="Layer_1" data-name="Layer 1" xmlns="http://www.w3.org/2000/svg" viewBox="0 0 24 24"><defs><style>.cls-1{fill:#232526;}</style></defs><path class="cls-1" d="M20.5,6H18V3.5a.5.5,0,0,0-.5-.5h-2a.5.5,0,0,0-.5.5V6H9V3.5A.5.5,0,0,0,8.5,3h-2a.5.5,0,0,0-.5.5V6H3.5a.5.5,0,0,0-.5.5V8H21V6.5A.5.5,0,0,0,20.5,6Z"/><path class="cls-1" d="M3,20.5a.5.5,0,0,0,.5.5h17a.5.5,0,0,0,.5-.5V10H3Zm11.75-7.92h.89v6H14.35V13.9l-1,.26-.27-1.07ZM9.7,16H9.15L9,15.17l1.42-1.43H8V12.62h4v1L10.54,15a1.64,1.64,0,0,1,1.6,1.66v0A1.93,1.93,0,0,1,10,18.66a2.85,2.85,0,0,1-2.31-1l.89-.85a1.82,1.82,0,0,0,1.44.71.75.75,0,0,0,.84-.72v0C10.86,16.27,10.43,16,9.7,16Z"/></svg>