<svg id="Layer_1" data-name="Layer 1" xmlns="http://www.w3.org/2000/svg" viewBox="0 0 24 24"><defs><style>.cls-1{fill:#232526;}</style></defs><path class="cls-1" d="M18.63,5.63,15.37,2.37A1.26,1.26,0,0,0,14.48,2H6.25A1.25,1.25,0,0,0,5,3.25v17.5A1.25,1.25,0,0,0,6.25,22h11.5A1.25,1.25,0,0,0,19,20.75V6.52A1.26,1.26,0,0,0,18.63,5.63ZM17,17.5a.5.5,0,0,1-.5.5h-9a.5.5,0,0,1-.5-.5v-1a.5.5,0,0,1,.5-.5h9a.5.5,0,0,1,.5.5Zm0-5a.5.5,0,0,1-.5.5h-9a.5.5,0,0,1-.5-.5v-1a.5.5,0,0,1,.5-.5h9a.5.5,0,0,1,.5.5Z"/></svg>