<svg id="Layer_1" data-name="Layer 1" xmlns="http://www.w3.org/2000/svg" viewBox="0 0 24 24"><defs><style>.cls-1{fill:#232526;}</style></defs><path class="cls-1" d="M18.55,15.5c0-2.69-2.25-4.92-5.3-5.4V6.21a2.7,2.7,0,0,1,1.48,1,.52.52,0,0,0,.54.19L16.91,7c.51-.12.66-.51.48-.8a6,6,0,0,0-4.14-2.53V2.5a.5.5,0,0,0-.5-.5h-1.5a.5.5,0,0,0-.5.5V3.65C8,4.1,6,6,6,8.26s2,4.15,4.75,4.61v5A2.7,2.7,0,0,1,8.5,15.49v-.73a.5.5,0,0,0-.5-.5H6a.51.51,0,0,0-.5.5v.74c0,2.67,2.23,4.9,5.25,5.4v.6a.5.5,0,0,0,.5.5h1.5a.5.5,0,0,0,.5-.5v-.6C16.3,20.42,18.55,18.19,18.55,15.5ZM9,8c0-.81.72-1.5,1.75-1.81V9.81C9.72,9.5,9,8.81,9,8Zm4.25,9.83V13.14a2.7,2.7,0,0,1,2.26,2.35A2.7,2.7,0,0,1,13.25,17.83Z"/></svg>