<svg id="Layer_1" data-name="Layer 1" xmlns="http://www.w3.org/2000/svg" viewBox="0 0 24 24"><defs><style>.cls-1{fill:#232526;}</style></defs><path class="cls-1" d="M14.49,3.85l1.42,1.42-5.31,5.3a.51.51,0,0,0,0,.71l2.12,2.12a.51.51,0,0,0,.71,0l5.3-5.31,1.42,1.42A.5.5,0,0,0,21,9.15V3.5a.5.5,0,0,0-.5-.5H14.85A.5.5,0,0,0,14.49,3.85Z"/><path class="cls-1" d="M20.5,21H3.5a.5.5,0,0,1-.5-.5V3.5A.5.5,0,0,1,3.5,3h7a.5.5,0,0,1,.5.5v2a.5.5,0,0,1-.5.5h-4a.5.5,0,0,0-.5.5v11a.5.5,0,0,0,.5.5h11a.5.5,0,0,0,.5-.5v-4a.5.5,0,0,1,.5-.5h2a.5.5,0,0,1,.5.5v7A.5.5,0,0,1,20.5,21Z"/></svg>