<svg id="Layer_1" data-name="Layer 1" xmlns="http://www.w3.org/2000/svg" viewBox="0 0 24 24"><defs><style>.cls-1{fill:#232526;}</style></defs><path class="cls-1" d="M5,19V16.5a.5.5,0,0,0-.5-.5h-1a.5.5,0,0,0-.5.5v4a.5.5,0,0,0,.5.5h4a.5.5,0,0,0,.5-.5v-1a.5.5,0,0,0-.5-.5Z"/><path class="cls-1" d="M19,19H16.5a.5.5,0,0,0-.5.5v1a.5.5,0,0,0,.5.5h4a.5.5,0,0,0,.5-.5v-4a.5.5,0,0,0-.5-.5h-1a.5.5,0,0,0-.5.5Z"/><path class="cls-1" d="M5,5H7.5A.5.5,0,0,0,8,4.5v-1A.5.5,0,0,0,7.5,3h-4a.5.5,0,0,0-.5.5v4a.5.5,0,0,0,.5.5h1A.5.5,0,0,0,5,7.5Z"/><path class="cls-1" d="M19,5V7.5a.5.5,0,0,0,.5.5h1a.5.5,0,0,0,.5-.5v-4a.5.5,0,0,0-.5-.5h-4a.5.5,0,0,0-.5.5v1a.5.5,0,0,0,.5.5Z"/><circle class="cls-1" cx="12" cy="8" r="3"/><path class="cls-1" d="M12,12a5,5,0,0,0-5,5v.5a.5.5,0,0,0,.5.5h9a.5.5,0,0,0,.5-.5V17A5,5,0,0,0,12,12Z"/></svg>