<svg id="Layer_1" data-name="Layer 1" xmlns="http://www.w3.org/2000/svg" viewBox="0 0 24 24"><defs><style>.cls-1{fill:#232526;}</style></defs><path class="cls-1" d="M20.5,4H16V3.5a.5.5,0,0,0-.5-.5h-2a.5.5,0,0,0-.5.5V4H3.5a.5.5,0,0,0-.5.5v2a.5.5,0,0,0,.5.5H13v.5a.5.5,0,0,0,.5.5h2a.5.5,0,0,0,.5-.5V7h4.5a.5.5,0,0,0,.5-.5v-2A.5.5,0,0,0,20.5,4Z"/><path class="cls-1" d="M20.5,10.5H8V10a.5.5,0,0,0-.5-.5h-2A.5.5,0,0,0,5,10v.5H3.5A.5.5,0,0,0,3,11v2a.5.5,0,0,0,.5.5H5V14a.5.5,0,0,0,.5.5h2A.5.5,0,0,0,8,14v-.5H20.5A.5.5,0,0,0,21,13V11A.5.5,0,0,0,20.5,10.5Z"/><path class="cls-1" d="M20.5,17H19v-.5a.5.5,0,0,0-.5-.5h-2a.5.5,0,0,0-.5.5V17H3.5a.5.5,0,0,0-.5.5v2a.5.5,0,0,0,.5.5H16v.5a.5.5,0,0,0,.5.5h2a.5.5,0,0,0,.5-.5V20h1.5a.5.5,0,0,0,.5-.5v-2A.5.5,0,0,0,20.5,17Z"/></svg>