<svg id="Layer_1" data-name="Layer 1" xmlns="http://www.w3.org/2000/svg" viewBox="0 0 24 24"><defs><style>.cls-1{fill:#232526;}</style></defs><path class="cls-1" d="M19.75,3H4.25A1.25,1.25,0,0,0,3,4.25v15.5A1.25,1.25,0,0,0,4.25,21h15.5A1.25,1.25,0,0,0,21,19.75V4.25A1.25,1.25,0,0,0,19.75,3ZM8,18.5a.5.5,0,0,1-.5.5h-2a.5.5,0,0,1-.5-.5v-2a.5.5,0,0,1,.5-.5h2a.5.5,0,0,1,.5.5ZM8,13a.5.5,0,0,1-.5.5h-2A.5.5,0,0,1,5,13V11a.5.5,0,0,1,.5-.5h2A.5.5,0,0,1,8,11ZM8,7.5a.5.5,0,0,1-.5.5h-2A.5.5,0,0,1,5,7.5v-2A.5.5,0,0,1,5.5,5h2a.5.5,0,0,1,.5.5Zm5.5,11a.5.5,0,0,1-.5.5H11a.5.5,0,0,1-.5-.5v-2A.5.5,0,0,1,11,16h2a.5.5,0,0,1,.5.5Zm0-5.5a.5.5,0,0,1-.5.5H11a.5.5,0,0,1-.5-.5V11a.5.5,0,0,1,.5-.5h2a.5.5,0,0,1,.5.5Zm0-5.5A.5.5,0,0,1,13,8H11a.5.5,0,0,1-.5-.5v-2A.5.5,0,0,1,11,5h2a.5.5,0,0,1,.5.5Zm5.5,11a.5.5,0,0,1-.5.5h-2a.5.5,0,0,1-.5-.5v-2a.5.5,0,0,1,.5-.5h2a.5.5,0,0,1,.5.5ZM19,13a.5.5,0,0,1-.5.5h-2A.5.5,0,0,1,16,13V11a.5.5,0,0,1,.5-.5h2a.5.5,0,0,1,.5.5Zm0-5.5a.5.5,0,0,1-.5.5h-2a.5.5,0,0,1-.5-.5v-2a.5.5,0,0,1,.5-.5h2a.5.5,0,0,1,.5.5Z"/></svg>