<svg id="Layer_1" data-name="Layer 1" xmlns="http://www.w3.org/2000/svg" viewBox="0 0 24 24"><defs><style>.cls-1{fill:#232526;}</style></defs><circle class="cls-1" cx="17.14" cy="5" r="2"/><path class="cls-1" d="M8.74,10.55l2.83,2.83,4.06-4.06a1.25,1.25,0,0,0,0-1.77L12.45,4.37a1.25,1.25,0,0,0-1.77,0L8.39,6.66a.5.5,0,0,0,0,.71l.7.71a.51.51,0,0,0,.71,0l1.41-1.42a.51.51,0,0,1,.71,0h0a.5.5,0,0,1,0,.71Z"/><path class="cls-1" d="M16.75,12H13l2.68-2.68a1.25,1.25,0,0,0,0-1.77L12.45,4.37a1.25,1.25,0,0,0-1.77,0l-3,3a.5.5,0,0,0,0,.71l.71.71a.5.5,0,0,0,.7,0l2.12-2.13a.51.51,0,0,1,.71,0,.5.5,0,0,1,0,.71L9.24,10.06A4.52,4.52,0,0,0,8.5,10,5.5,5.5,0,1,0,14,15.5a5.72,5.72,0,0,0-.21-1.5H16v4.5a.5.5,0,0,0,.5.5h1a.5.5,0,0,0,.5-.5V13.25A1.25,1.25,0,0,0,16.75,12ZM8.5,19A3.5,3.5,0,1,1,12,15.5,3.5,3.5,0,0,1,8.5,19Z"/></svg>