<svg id="Layer_1" data-name="Layer 1" xmlns="http://www.w3.org/2000/svg" viewBox="0 0 24 24"><defs><style>.cls-1{fill:#232526;}</style></defs><path class="cls-1" d="M20.75,5H3.25A1.25,1.25,0,0,0,2,6.25v11.5A1.25,1.25,0,0,0,3.25,19h17.5A1.25,1.25,0,0,0,22,17.75V6.25A1.25,1.25,0,0,0,20.75,5ZM11,15.5a.5.5,0,0,1-.5.5h-6a.5.5,0,0,1-.5-.5v-7A.5.5,0,0,1,4.5,8h6a.5.5,0,0,1,.5.5Zm9-2a.5.5,0,0,1-.5.5h-6a.5.5,0,0,1-.5-.5v-1a.5.5,0,0,1,.5-.5h6a.5.5,0,0,1,.5.5Zm0-4a.5.5,0,0,1-.5.5h-6a.5.5,0,0,1-.5-.5v-1a.5.5,0,0,1,.5-.5h6a.5.5,0,0,1,.5.5Z"/></svg>