<svg id="Layer_1" data-name="Layer 1" xmlns="http://www.w3.org/2000/svg" viewBox="0 0 24 24"><defs><style>.cls-1{fill:#232526;}</style></defs><path class="cls-1" d="M12,4.61c2.4,0,2.69,0,3.64,0A5.12,5.12,0,0,1,17.3,5a2.77,2.77,0,0,1,1,.68,2.63,2.63,0,0,1,.67,1,4.86,4.86,0,0,1,.31,1.67c.05,1,.06,1.24.06,3.64s0,2.69-.06,3.64A4.86,4.86,0,0,1,19,17.3a2.63,2.63,0,0,1-.67,1,2.77,2.77,0,0,1-1,.68,5.12,5.12,0,0,1-1.67.31c-1,0-1.24.05-3.64.05s-2.69,0-3.64-.05A5.06,5.06,0,0,1,6.68,19a2.77,2.77,0,0,1-1-.68,2.77,2.77,0,0,1-.68-1,5.12,5.12,0,0,1-.31-1.67c0-1,0-1.24,0-3.64s0-2.69,0-3.64A5.12,5.12,0,0,1,5,6.68a2.77,2.77,0,0,1,.68-1,2.77,2.77,0,0,1,1-.68,5.06,5.06,0,0,1,1.67-.31c1,0,1.24,0,3.64,0M12,3C9.54,3,9.24,3,8.28,3a6.9,6.9,0,0,0-2.19.42,4.42,4.42,0,0,0-1.59,1,4.37,4.37,0,0,0-1,1.6A6.78,6.78,0,0,0,3,8.28c0,1,0,1.27,0,3.71s0,2.75,0,3.71a6.9,6.9,0,0,0,.42,2.19,4.64,4.64,0,0,0,2.63,2.63,6.9,6.9,0,0,0,2.19.42c1,0,1.26,0,3.71,0s2.75,0,3.71,0a6.78,6.78,0,0,0,2.18-.42,4.37,4.37,0,0,0,1.6-1,4.42,4.42,0,0,0,1-1.59,6.66,6.66,0,0,0,.41-2.19c.05-1,.06-1.27.06-3.71s0-2.75-.06-3.71a6.54,6.54,0,0,0-.41-2.18,4.6,4.6,0,0,0-2.64-2.64A6.78,6.78,0,0,0,15.7,3c-1,0-1.27,0-3.71,0Z"/><path class="cls-1" d="M12,7.37A4.62,4.62,0,1,0,16.61,12,4.62,4.62,0,0,0,12,7.37ZM12,15a3,3,0,1,1,3-3A3,3,0,0,1,12,15Z"/><circle class="cls-1" cx="16.79" cy="7.19" r="1.08"/></svg>