<svg id="Layer_1" data-name="Layer 1" xmlns="http://www.w3.org/2000/svg" viewBox="0 0 24 24"><defs><style>.cls-1{fill:#232526;}</style></defs><path class="cls-1" d="M19.72,3H4.31A1.27,1.27,0,0,0,3.05,4.3V19.71A1.27,1.27,0,0,0,4.31,21H19.72A1.26,1.26,0,0,0,21,19.71V4.3A1.26,1.26,0,0,0,19.72,3ZM8.39,18.15c0,.14,0,.19-.18.19H5.86c-.15,0-.18-.06-.18-.2,0-1.36,0-2.73,0-4.1s0-2.72,0-4.08c0-.16,0-.22.2-.21H8.2c.14,0,.19,0,.19.18ZM7,8.6A1.55,1.55,0,1,1,8.59,7.06,1.54,1.54,0,0,1,7,8.6Zm11.32,9.53c0,.17-.06.22-.22.21H15.86c-.16,0-.22-.05-.22-.22,0-1.4,0-2.81,0-4.22a4.77,4.77,0,0,0-.11-1.06,1.09,1.09,0,0,0-1.18-.92,2.28,2.28,0,0,0-.58.05,1.35,1.35,0,0,0-1,1.2,4.79,4.79,0,0,0-.06.85c0,1.37,0,2.73,0,4.1,0,.22,0,.22-.22.22H10.23c-.17,0-.22,0-.22-.21V10c0-.22,0-.22.22-.22h2.18c.15,0,.21,0,.2.2s0,.61,0,.92c0-.06.13-.18.16-.22a2.88,2.88,0,0,1,.78-.65,3.22,3.22,0,0,1,4.29.88,7.16,7.16,0,0,1,.58,3.4C18.44,15.56,18.34,16.84,18.35,18.13Z"/></svg>