<svg id="Layer_1" data-name="Layer 1" xmlns="http://www.w3.org/2000/svg" viewBox="0 0 24 24"><defs><style>.cls-1{fill:#232526;}</style></defs><path class="cls-1" d="M19.75,3H4.25A1.25,1.25,0,0,0,3,4.25v15.5A1.25,1.25,0,0,0,4.25,21h15.5A1.25,1.25,0,0,0,21,19.75V4.25A1.25,1.25,0,0,0,19.75,3ZM19,17.5a.5.5,0,0,1-.5.5H5.5a.5.5,0,0,1-.5-.5v-1a.5.5,0,0,1,.5-.5h13a.5.5,0,0,1,.5.5Zm0-5a.5.5,0,0,1-.5.5H5.5a.5.5,0,0,1-.5-.5v-1a.5.5,0,0,1,.5-.5h13a.5.5,0,0,1,.5.5Zm0-5a.5.5,0,0,1-.5.5H5.5A.5.5,0,0,1,5,7.5v-1A.5.5,0,0,1,5.5,6h13a.5.5,0,0,1,.5.5Z"/></svg>