<svg id="Layer_1" data-name="Layer 1" xmlns="http://www.w3.org/2000/svg" viewBox="0 0 24 24"><defs><style>.cls-1{fill:#232526;}</style></defs><path class="cls-1" d="M14,15.5a.5.5,0,0,1-.5.5h-8a.5.5,0,0,1-.5-.5V5.5A.5.5,0,0,1,5.5,5h8a.5.5,0,0,1,.5.5V6h2V4.25A1.25,1.25,0,0,0,14.75,3H4.25A1.25,1.25,0,0,0,3,4.25v15.5A1.25,1.25,0,0,0,4.25,21h10.5A1.25,1.25,0,0,0,16,19.75V14H14ZM9.3,20a1,1,0,1,1,1-1A1,1,0,0,1,9.3,20Z"/><path class="cls-1" d="M20.5,7H9.5a.5.5,0,0,0-.5.5v5a.5.5,0,0,0,.5.5H16l3.16,2.86a.5.5,0,0,0,.84-.37V13h.5a.5.5,0,0,0,.5-.5v-5A.5.5,0,0,0,20.5,7Z"/></svg>