<svg id="Layer_1" data-name="Layer 1" xmlns="http://www.w3.org/2000/svg" viewBox="0 0 24 24"><defs><style>.cls-1{fill:#232526;}</style></defs><path class="cls-1" d="M16.27,12.27l-.33-.33a.53.53,0,0,1-.09-.66,2.25,2.25,0,0,0-.26-2.87,2.31,2.31,0,0,0-2.88-.25.52.52,0,0,1-.64-.09l-.33-.33A.5.5,0,0,1,11.82,7a3.85,3.85,0,0,1,4.83.39A3.74,3.74,0,0,1,17,12.19.51.51,0,0,1,16.27,12.27Z"/><path class="cls-1" d="M18.58,14.58l-.71-.71a.5.5,0,0,1,0-.68A4.94,4.94,0,0,0,19,10a5,5,0,0,0-5-5,4.94,4.94,0,0,0-3.19,1.15.5.5,0,0,1-.68,0l-.71-.71a.5.5,0,0,1,0-.73,7,7,0,0,1,9.87,9.87A.5.5,0,0,1,18.58,14.58Z"/><path class="cls-1" d="M19.1,17.63,16.27,14.8a.51.51,0,0,0-.71,0L14,16.39a.24.24,0,0,1-.35,0l-6-6a.24.24,0,0,1,0-.35L9.2,8.44a.51.51,0,0,0,0-.71L6.37,4.9a.51.51,0,0,0-.71,0L3.19,7.38h0C2.37,9,4.3,12.74,7.78,16.22s7.27,5.41,8.84,4.59l2.48-2.47A.51.51,0,0,0,19.1,17.63Z"/></svg>