<svg id="Layer_1" data-name="Layer 1" xmlns="http://www.w3.org/2000/svg" viewBox="0 0 24 24"><defs><style>.cls-1{fill:#232526;}</style></defs><g id="art"><path class="cls-1" d="M12,2A10,10,0,0,0,8.36,21.29a9.56,9.56,0,0,1,0-2.87c.18-.78,1.17-5,1.17-5A3.6,3.6,0,0,1,9.27,12c0-1.39.81-2.43,1.81-2.43A1.26,1.26,0,0,1,12.35,11a20.6,20.6,0,0,1-.83,3.33A1.45,1.45,0,0,0,13,16.09c1.78,0,3.14-1.88,3.14-4.58A3.94,3.94,0,0,0,12,7.45a4.33,4.33,0,0,0-4.52,4.34,4,4,0,0,0,.74,2.28.3.3,0,0,1,.07.28c-.08.32-.25,1-.28,1.14s-.15.22-.34.13c-1.25-.58-2-2.4-2-3.88,0-3.15,2.29-6,6.61-6a5.87,5.87,0,0,1,6.16,5.78c0,3.45-2.17,6.23-5.18,6.23a2.66,2.66,0,0,1-2.29-1.16s-.5,1.91-.63,2.38A10.82,10.82,0,0,1,9,21.55,10,10,0,1,0,12,2Z"/></g></svg>