<svg id="Layer_1" data-name="Layer 1" xmlns="http://www.w3.org/2000/svg" viewBox="0 0 24 24"><defs><style>.cls-1{fill:#232526;}</style></defs><path class="cls-1" d="M19.75,7H18V4.25A1.25,1.25,0,0,0,16.75,3H7.25A1.25,1.25,0,0,0,6,4.25V7H4.25A1.25,1.25,0,0,0,3,8.25v5.5A1.25,1.25,0,0,0,4.25,15H6v4.75A1.25,1.25,0,0,0,7.25,21h9.5A1.25,1.25,0,0,0,18,19.75V15h1.75A1.25,1.25,0,0,0,21,13.75V8.25A1.25,1.25,0,0,0,19.75,7ZM16,18.5a.5.5,0,0,1-.5.5h-7a.5.5,0,0,1-.5-.5v-3a.5.5,0,0,1,.5-.5h7a.5.5,0,0,1,.5.5ZM18,11a1,1,0,1,1,1-1A1,1,0,0,1,18,11Z"/></svg>