<svg id="Layer_1" data-name="Layer 1" xmlns="http://www.w3.org/2000/svg" viewBox="0 0 24 24"><defs><style>.cls-1{fill:#232526;}</style></defs><circle class="cls-1" cx="11.5" cy="19.5" r="1.5"/><circle class="cls-1" cx="16.5" cy="19.5" r="1.5"/><path class="cls-1" d="M20.5,6H8L7.38,3.38A.51.51,0,0,0,6.89,3H3.5a.5.5,0,0,0-.5.5v1a.5.5,0,0,0,.5.5H5.33a.49.49,0,0,1,.48.38L8.87,17.62a.51.51,0,0,0,.49.38H18.5a.5.5,0,0,0,.5-.5v-1a.5.5,0,0,0-.5-.5H10.92a.49.49,0,0,1-.48-.38L10,14h8.7a.51.51,0,0,0,.49-.38l1.76-7A.49.49,0,0,0,20.5,6Z"/></svg>