<svg id="Layer_1" data-name="Layer 1" xmlns="http://www.w3.org/2000/svg" viewBox="0 0 24 24"><defs><style>.cls-1{fill:none;}.cls-2{fill:#232526;}</style></defs><path class="cls-1" d="M12.41,4.06,14.06,9.4a.44.44,0,0,0,.41.31h5.35a.45.45,0,0,1,.26.81l-4.33,3.3a.44.44,0,0,0-.16.5l1.65,5.34a.43.43,0,0,1-.66.5l-4.33-3.3a.42.42,0,0,0-.5,0l-4.33,3.3a.43.43,0,0,1-.66-.5l1.65-5.34a.46.46,0,0,0-.16-.5l-4.33-3.3a.45.45,0,0,1,.25-.81H9.53a.44.44,0,0,0,.41-.31l1.65-5.34A.42.42,0,0,1,12.41,4.06Z"/><path class="cls-2" d="M7.16,21a1.15,1.15,0,0,1-.66-.21A1.21,1.21,0,0,1,6,19.44l1.6-5.15L3.47,11.11a1.21,1.21,0,0,1-.41-1.34A1.17,1.17,0,0,1,4.17,9H9.29l1.59-5.12A1.17,1.17,0,0,1,12,3a1.19,1.19,0,0,1,1.12.84L14.71,9h5.12a1.18,1.18,0,0,1,1.11.81,1.21,1.21,0,0,1-.41,1.34l-4.17,3.18L18,19.44a1.21,1.21,0,0,1-.46,1.35,1.16,1.16,0,0,1-1.37,0L12,17.61,7.87,20.76A1.17,1.17,0,0,1,7.16,21ZM12,16a1.12,1.12,0,0,1,.7.24L16.25,19l-1.37-4.43a1.19,1.19,0,0,1,.41-1.31l3.65-2.78H14.47a1.16,1.16,0,0,1-1.12-.83L12,5.26,10.65,9.62a1.17,1.17,0,0,1-1.12.83H5.06l3.65,2.78a1.2,1.2,0,0,1,.41,1.32L7.75,19l3.55-2.7A1.12,1.12,0,0,1,12,16ZM7.7,14.1Zm8.6,0Z"/></svg>