<svg id="Layer_1" data-name="Layer 1" xmlns="http://www.w3.org/2000/svg" viewBox="0 0 24 24"><defs><style>.cls-1{fill:#232526;}</style></defs><path class="cls-1" d="M20.94,9.77A1.18,1.18,0,0,0,19.83,9H14.71L13.12,3.84A1.19,1.19,0,0,0,12,3a1.17,1.17,0,0,0-1.12.84L9.29,9H4.17a1.17,1.17,0,0,0-1.11.81,1.21,1.21,0,0,0,.41,1.34l4.17,3.18L6,19.44a1.21,1.21,0,0,0,.46,1.35,1.15,1.15,0,0,0,.66.21,1.17,1.17,0,0,0,.71-.24L12,17.61l4.13,3.15a1.16,1.16,0,0,0,1.37,0A1.21,1.21,0,0,0,18,19.44l-1.6-5.15,4.17-3.18A1.21,1.21,0,0,0,20.94,9.77Z"/></svg>