<svg id="Layer_1" data-name="Layer 1" xmlns="http://www.w3.org/2000/svg" viewBox="0 0 24 24"><defs><style>.cls-1{fill:#232526;}</style></defs><path class="cls-1" d="M21,11.49a2.5,2.5,0,0,0-5,0,2.47,2.47,0,0,0,1.25,2.15v1.11h0a3.75,3.75,0,0,1-7.5,0h0v-.9A5.49,5.49,0,0,0,14,8.5v-5a.5.5,0,0,0-.5-.5h-3a.5.5,0,0,0-.5.5v2a.5.5,0,0,0,.5.5h1V8.5a3,3,0,0,1-6,0V6h1A.5.5,0,0,0,7,5.5v-2A.5.5,0,0,0,6.5,3h-3a.5.5,0,0,0-.5.5v5a5.49,5.49,0,0,0,4.25,5.35v.9h0a6.25,6.25,0,0,0,12.5,0h0V13.64A2.49,2.49,0,0,0,21,11.49Z"/></svg>