<svg id="Layer_1" data-name="Layer 1" xmlns="http://www.w3.org/2000/svg" viewBox="0 0 24 24"><defs><style>.cls-1{fill:#232526;}.cls-2{fill:none;}</style></defs><path class="cls-1" d="M8.79,19A10,10,0,0,0,18.86,8.9c0-.16,0-.31,0-.46a7.12,7.12,0,0,0,1.76-1.83,7.27,7.27,0,0,1-2,.56,3.52,3.52,0,0,0,1.55-2,7.24,7.24,0,0,1-2.24.86,3.54,3.54,0,0,0-6,3.22A10,10,0,0,1,4.57,5.6a3.53,3.53,0,0,0,1.1,4.72,3.57,3.57,0,0,1-1.6-.44.06.06,0,0,0,0,0A3.55,3.55,0,0,0,6.9,13.39a3.59,3.59,0,0,1-.93.12,3.71,3.71,0,0,1-.67-.06,3.57,3.57,0,0,0,3.31,2.46,7.15,7.15,0,0,1-4.39,1.51,7.92,7.92,0,0,1-.85-.05A10.07,10.07,0,0,0,8.79,19"/><rect class="cls-2" x="-1.8" y="-1.83" width="27.58" height="27.58"/></svg>